<svg xmlns="http://www.w3.org/2000/svg" xmlns:xlink="http://www.w3.org/1999/xlink" width="2000" zoomAndPan="magnify" viewBox="0 0 1500 1499.999933" height="2000" preserveAspectRatio="xMidYMid meet" version="1.0"><defs><g/><clipPath id="de89d0af27"><rect x="0" width="1125" y="0" height="1058"/></clipPath></defs><g transform="matrix(1, 0, 0, 1, 188, 221)"><g clip-path="url(#de89d0af27)"><g fill="#b70c34" fill-opacity="1"><g transform="translate(79.791952, 356.148703)"><g><path d="M 92.5625 8.890625 C 87.125 8.640625 82.0625 7.28125 77.375 4.8125 C 72.6875 2.34375 67.378906 -1.234375 61.453125 -5.921875 L 54.046875 -11.109375 C 49.609375 -15.546875 46.21875 -20.171875 43.875 -24.984375 C 41.53125 -29.796875 39.613281 -36.03125 38.125 -43.6875 C 37.632812 -46.644531 37.390625 -49.234375 37.390625 -51.453125 C 37.390625 -58.617188 38.625 -67.070312 41.09375 -76.8125 C 43.5625 -86.5625 46.273438 -94.523438 49.234375 -100.703125 C 54.671875 -113.785156 66.644531 -134.765625 85.15625 -163.640625 C 86.132812 -164.628906 86.804688 -165.304688 87.171875 -165.671875 C 87.546875 -166.046875 87.671875 -166.289062 87.546875 -166.40625 C 87.429688 -166.53125 87.375 -166.59375 87.375 -166.59375 C 87.375 -168.320312 90.953125 -175.972656 98.109375 -189.546875 C 102.304688 -193.992188 104.40625 -197.820312 104.40625 -201.03125 C 104.40625 -202.757812 104.035156 -204.113281 103.296875 -205.09375 C 102.304688 -206.332031 104.585938 -209.359375 110.140625 -214.171875 C 115.691406 -218.984375 122.664062 -223.734375 131.0625 -228.421875 C 137.71875 -233.609375 144.253906 -236.203125 150.671875 -236.203125 C 152.648438 -236.203125 154.316406 -235.890625 155.671875 -235.265625 C 157.035156 -234.648438 157.835938 -233.726562 158.078125 -232.5 C 158.078125 -231.019531 163.015625 -231.515625 172.890625 -233.984375 C 177.335938 -234.960938 180.546875 -235.578125 182.515625 -235.828125 C 183.503906 -237.066406 186.035156 -238.113281 190.109375 -238.96875 C 194.179688 -239.832031 199.921875 -240.757812 207.328125 -241.75 C 211.273438 -241.5 215.34375 -241.5 219.53125 -241.75 C 223.726562 -242 226.445312 -242.25 227.6875 -242.5 C 229.65625 -243.238281 231.8125 -242.925781 234.15625 -241.5625 C 236.507812 -240.207031 238.546875 -237.554688 240.265625 -233.609375 C 241.003906 -231.878906 241.375 -230.273438 241.375 -228.796875 C 241.375 -226.078125 239.707031 -223.914062 236.375 -222.3125 C 233.050781 -220.707031 227.316406 -219.410156 219.171875 -218.421875 C 211.023438 -217.441406 205.960938 -216.828125 203.984375 -216.578125 C 190.410156 -215.097656 176.097656 -212.753906 161.046875 -209.546875 C 151.421875 -207.566406 144.445312 -205.097656 140.125 -202.140625 C 135.8125 -199.179688 130.9375 -193.503906 125.5 -185.109375 C 123.769531 -183.878906 121.546875 -180.734375 118.828125 -175.671875 C 116.117188 -170.609375 113.410156 -165.363281 110.703125 -159.9375 C 109.953125 -158.945312 109.082031 -157.710938 108.09375 -156.234375 C 107.113281 -154.753906 105.882812 -153.148438 104.40625 -151.421875 C 97.25 -141.796875 92.3125 -134.820312 89.59375 -130.5 C 86.875 -126.175781 85.882812 -123.523438 86.625 -122.546875 C 87.363281 -122.296875 88.78125 -121.921875 90.875 -121.421875 C 92.976562 -120.929688 94.769531 -120.566406 96.25 -120.328125 C 98.476562 -121.554688 101.566406 -122.414062 105.515625 -122.90625 C 109.460938 -123.40625 112.300781 -123.898438 114.03125 -124.390625 C 153.269531 -134.515625 175.484375 -139.945312 180.671875 -140.6875 C 182.890625 -142.164062 184.984375 -142.90625 186.953125 -142.90625 C 191.398438 -142.90625 195.351562 -139.941406 198.8125 -134.015625 C 199.550781 -132.535156 199.921875 -131.179688 199.921875 -129.953125 C 199.921875 -127.722656 198.191406 -125.617188 194.734375 -123.640625 C 191.273438 -121.671875 184.734375 -119.265625 175.109375 -116.421875 C 165.484375 -113.585938 153.882812 -110.320312 140.3125 -106.625 L 128.46875 -103.296875 C 112.425781 -98.597656 99.960938 -96.25 91.078125 -96.25 C 83.421875 -96.25 79.71875 -98.347656 79.96875 -102.546875 C 77.5 -103.785156 74.722656 -101.070312 71.640625 -94.40625 C 68.554688 -87.738281 65.898438 -79.53125 63.671875 -69.78125 C 61.453125 -60.03125 60.34375 -51.828125 60.34375 -45.171875 C 60.34375 -41.710938 60.710938 -38.992188 61.453125 -37.015625 C 63.671875 -30.847656 66.445312 -26.160156 69.78125 -22.953125 C 73.113281 -19.742188 78.726562 -17.03125 86.625 -14.8125 C 88.351562 -14.5625 90.515625 -14.3125 93.109375 -14.0625 C 95.703125 -13.820312 98.726562 -13.703125 102.1875 -13.703125 C 107.113281 -13.703125 112.046875 -14.6875 116.984375 -16.65625 C 129.578125 -18.875 140.375 -21.34375 149.375 -24.0625 C 158.382812 -26.78125 163.878906 -28.753906 165.859375 -29.984375 C 167.335938 -30.722656 168.570312 -31.21875 169.5625 -31.46875 C 170.550781 -31.71875 171.535156 -31.84375 172.515625 -31.84375 L 172.15625 -31.09375 C 172.15625 -31.09375 172.15625 -31.03125 172.15625 -30.90625 C 172.15625 -30.789062 172.273438 -30.734375 172.515625 -30.734375 C 173.253906 -30.734375 175.476562 -32.828125 179.1875 -37.015625 C 183.382812 -40.472656 189.125 -43.804688 196.40625 -47.015625 C 203.6875 -50.222656 207.445312 -50.960938 207.6875 -49.234375 C 208.1875 -47.753906 208.4375 -46.519531 208.4375 -45.53125 C 208.4375 -40.84375 205.535156 -35.226562 199.734375 -28.6875 C 193.929688 -22.144531 186.09375 -16.035156 176.21875 -10.359375 C 164.125 -3.941406 150.609375 0.804688 135.671875 3.890625 C 120.742188 6.972656 106.375 8.640625 92.5625 8.890625 Z M 92.5625 8.890625 "/></g></g></g><g fill="#b70c34" fill-opacity="1"><g transform="translate(275.260688, 356.148703)"><g><path d="M 48.125 -19.984375 C 44.425781 -19.984375 41.585938 -20.847656 39.609375 -22.578125 C 37.640625 -24.304688 36.34375 -25.664062 35.71875 -26.65625 C 35.101562 -27.644531 34.796875 -28.878906 34.796875 -30.359375 C 34.796875 -31.347656 35.660156 -35.914062 37.390625 -44.0625 L 40.71875 -56.265625 C 43.1875 -66.390625 45.410156 -74.785156 47.390625 -81.453125 C 48.378906 -87.617188 50.289062 -94.15625 53.125 -101.0625 C 55.96875 -107.976562 57.632812 -112.175781 58.125 -113.65625 C 60.101562 -120.8125 63.925781 -131.921875 69.59375 -146.984375 L 80.703125 -176.96875 C 89.347656 -200.414062 94.53125 -214.726562 96.25 -219.90625 L 102.1875 -236.203125 C 102.1875 -240.148438 104.160156 -242.125 108.109375 -242.125 C 111.554688 -242.125 114.453125 -240.207031 116.796875 -236.375 C 119.148438 -232.550781 120.328125 -228.171875 120.328125 -223.234375 C 120.328125 -219.535156 119.582031 -215.957031 118.09375 -212.5 C 114.644531 -205.101562 110.882812 -195.785156 106.8125 -184.546875 C 102.738281 -173.316406 100.082031 -165.976562 98.84375 -162.53125 C 90.457031 -138.832031 84.410156 -123.035156 80.703125 -115.140625 C 80.703125 -114.148438 80.332031 -112.421875 79.59375 -109.953125 C 78.851562 -107.484375 77.988281 -105.265625 77 -103.296875 L 72.9375 -95.140625 C 72.9375 -94.398438 71.578125 -89.21875 68.859375 -79.59375 C 65.398438 -68.976562 63.300781 -61.203125 62.5625 -56.265625 C 63.800781 -58.492188 66.394531 -61.890625 70.34375 -66.453125 C 74.289062 -71.015625 77.992188 -74.78125 81.453125 -77.75 C 95.023438 -89.34375 103.414062 -96.253906 106.625 -98.484375 C 109.582031 -100.203125 112.046875 -101.800781 114.015625 -103.28125 C 115.992188 -104.769531 117.351562 -105.757812 118.09375 -106.25 C 118.09375 -107.488281 119.453125 -108.109375 122.171875 -108.109375 C 123.160156 -108.109375 123.710938 -108.226562 123.828125 -108.46875 C 123.953125 -108.71875 124.015625 -109.335938 124.015625 -110.328125 C 124.015625 -112.054688 126.851562 -113.597656 132.53125 -114.953125 C 138.207031 -116.304688 143.269531 -116.984375 147.71875 -116.984375 C 150.675781 -116.984375 153.019531 -116.363281 154.75 -115.125 C 156.476562 -113.894531 158.703125 -111.1875 161.421875 -107 C 165.609375 -101.070312 167.703125 -94.648438 167.703125 -87.734375 C 167.703125 -83.785156 166.960938 -79.71875 165.484375 -75.53125 C 165.484375 -73.550781 165.175781 -70.523438 164.5625 -66.453125 C 163.945312 -62.378906 163.640625 -58.863281 163.640625 -55.90625 L 161.421875 -44.0625 L 167.34375 -44.0625 C 169.070312 -44.0625 170.738281 -43.8125 172.34375 -43.3125 C 173.945312 -42.820312 174.992188 -42.453125 175.484375 -42.203125 C 177.703125 -39.484375 179.675781 -38.125 181.40625 -38.125 C 183.625 -38.125 184.734375 -37.265625 184.734375 -35.546875 C 184.734375 -34.554688 184.238281 -33.320312 183.25 -31.84375 C 182.269531 -30.363281 180.914062 -29.128906 179.1875 -28.140625 C 172.769531 -24.191406 167.335938 -22.21875 162.890625 -22.21875 C 158.703125 -22.21875 154.382812 -24.191406 149.9375 -28.140625 C 144.507812 -33.566406 141.796875 -40.109375 141.796875 -47.765625 C 141.796875 -51.710938 142.535156 -56.398438 144.015625 -61.828125 L 145.125 -73.671875 C 145.613281 -79.597656 145.859375 -83.300781 145.859375 -84.78125 C 145.859375 -90.457031 144.503906 -93.296875 141.796875 -93.296875 C 138.335938 -93.296875 131.734375 -90.269531 121.984375 -84.21875 C 112.234375 -78.175781 102.175781 -70.648438 91.8125 -61.640625 C 81.445312 -52.628906 73.179688 -43.5625 67.015625 -34.4375 C 63.304688 -29.738281 60.15625 -26.21875 57.5625 -23.875 C 54.976562 -21.53125 52.570312 -20.234375 50.34375 -19.984375 Z M 48.125 -19.984375 "/></g></g></g><g fill="#b70c34" fill-opacity="1"><g transform="translate(439.632071, 356.148703)"><g><path d="M 44.0625 -12.953125 C 42.082031 -14.429688 40.722656 -15.785156 39.984375 -17.015625 C 39.242188 -18.253906 38.875 -20.109375 38.875 -22.578125 C 38.875 -24.804688 39 -26.660156 39.25 -28.140625 C 39.988281 -36.523438 41.835938 -46.273438 44.796875 -57.390625 L 46.640625 -64.78125 C 47.390625 -70.957031 51.710938 -83.914062 59.609375 -103.65625 C 67.503906 -123.40625 73.921875 -136.859375 78.859375 -144.015625 C 80.828125 -145.242188 82.925781 -145.859375 85.15625 -145.859375 C 88.363281 -145.859375 91.078125 -144.75 93.296875 -142.53125 C 94.773438 -141.539062 95.515625 -139.691406 95.515625 -136.984375 C 95.515625 -134.515625 94.585938 -130.875 92.734375 -126.0625 C 90.890625 -121.25 87.742188 -114.148438 83.296875 -104.765625 C 82.304688 -102.796875 80.640625 -99.09375 78.296875 -93.65625 C 75.953125 -88.226562 74.78125 -85.023438 74.78125 -84.046875 C 74.78125 -83.546875 74.90625 -83.296875 75.15625 -83.296875 C 75.644531 -83.296875 76.132812 -83.476562 76.625 -83.84375 C 77.125 -84.21875 77.617188 -84.53125 78.109375 -84.78125 C 80.828125 -89.46875 87.429688 -95.882812 97.921875 -104.03125 C 108.410156 -112.175781 115.628906 -117.234375 119.578125 -119.203125 C 121.304688 -120.191406 123.523438 -121.179688 126.234375 -122.171875 C 128.953125 -123.160156 130.804688 -123.898438 131.796875 -124.390625 C 135.742188 -126.367188 140.429688 -127.359375 145.859375 -127.359375 C 149.316406 -127.359375 152.34375 -126.800781 154.9375 -125.6875 C 157.53125 -124.570312 159.320312 -122.90625 160.3125 -120.6875 C 160.550781 -118.957031 161.222656 -117.597656 162.328125 -116.609375 C 163.441406 -115.628906 164.25 -115.015625 164.75 -114.765625 C 165.488281 -114.765625 165.976562 -114.457031 166.21875 -113.84375 C 166.46875 -113.226562 166.59375 -112.796875 166.59375 -112.546875 C 166.59375 -110.816406 165.601562 -109.765625 163.625 -109.390625 C 161.65625 -109.023438 158.082031 -108.71875 152.90625 -108.46875 C 150.1875 -108.226562 147.34375 -107.613281 144.375 -106.625 C 141.414062 -105.632812 138.457031 -104.398438 135.5 -102.921875 C 121.675781 -95.023438 111.367188 -88.851562 104.578125 -84.40625 C 97.796875 -79.96875 90.953125 -73.921875 84.046875 -66.265625 C 81.328125 -63.304688 77.742188 -58 73.296875 -50.34375 C 71.578125 -48.625 69.789062 -44.125 67.9375 -36.84375 C 66.082031 -29.5625 65.15625 -25.054688 65.15625 -23.328125 C 64.90625 -22.585938 64.410156 -21.164062 63.671875 -19.0625 C 62.929688 -16.96875 61.820312 -14.929688 60.34375 -12.953125 C 57.382812 -9.003906 54.914062 -7.03125 52.9375 -7.03125 C 50.71875 -7.03125 47.757812 -9.003906 44.0625 -12.953125 Z M 44.0625 -12.953125 "/></g></g></g><g fill="#b70c34" fill-opacity="1"><g transform="translate(565.501992, 356.148703)"><g><path d="M 48.125 0 C 47.382812 0.25 46.148438 0.375 44.421875 0.375 C 40.472656 0.375 37.390625 -1.597656 35.171875 -5.546875 C 32.953125 -9.503906 31.84375 -14.9375 31.84375 -21.84375 C 31.84375 -27.519531 32.582031 -34.0625 34.0625 -41.46875 C 36.769531 -48.625 38.125 -53.804688 38.125 -57.015625 C 38.875 -61.703125 41.40625 -70.15625 45.71875 -82.375 C 50.039062 -94.59375 52.816406 -101.9375 54.046875 -104.40625 C 55.035156 -104.40625 55.898438 -105.207031 56.640625 -106.8125 C 57.378906 -108.414062 57.75 -110.203125 57.75 -112.171875 C 57.75 -114.398438 58.179688 -116.6875 59.046875 -119.03125 C 59.910156 -121.375 60.835938 -123.035156 61.828125 -124.015625 C 61.828125 -124.765625 62.132812 -126.125 62.75 -128.09375 C 63.363281 -130.070312 63.671875 -131.429688 63.671875 -132.171875 C 63.671875 -132.660156 63.976562 -133.582031 64.59375 -134.9375 C 65.21875 -136.300781 65.53125 -137.351562 65.53125 -138.09375 C 69.476562 -145.738281 76.382812 -162.953125 86.25 -189.734375 C 96.125 -216.515625 101.0625 -231.382812 101.0625 -234.34375 C 101.0625 -238.289062 103.039062 -240.265625 107 -240.265625 C 108.226562 -241.503906 110.203125 -242.125 112.921875 -242.125 L 118.84375 -236.203125 C 120.570312 -234.472656 121.679688 -232.679688 122.171875 -230.828125 C 122.660156 -228.984375 122.90625 -226.207031 122.90625 -222.5 C 122.90625 -218.800781 122.410156 -215.59375 121.421875 -212.875 C 120.441406 -210.15625 117.976562 -204.601562 114.03125 -196.21875 C 113.289062 -194.488281 112.300781 -192.453125 111.0625 -190.109375 C 109.832031 -187.765625 108.476562 -184.863281 107 -181.40625 C 106.5 -180.175781 104.519531 -175.734375 101.0625 -168.078125 C 98.601562 -163.140625 97.375 -160.300781 97.375 -159.5625 C 97.375 -158.820312 96.878906 -157.28125 95.890625 -154.9375 C 94.898438 -152.59375 94.035156 -150.1875 93.296875 -147.71875 C 91.316406 -143.769531 88.164062 -136.796875 83.84375 -126.796875 C 79.53125 -116.804688 77.375 -111.316406 77.375 -110.328125 C 77.375 -107.609375 76.757812 -105.632812 75.53125 -104.40625 C 74.78125 -104.40625 74.28125 -103.847656 74.03125 -102.734375 C 73.789062 -101.617188 73.671875 -100.816406 73.671875 -100.328125 C 73.671875 -97.859375 71.695312 -91.316406 67.75 -80.703125 L 64.421875 -69.96875 C 59.734375 -53.925781 56.460938 -42.203125 54.609375 -34.796875 C 52.753906 -27.390625 51.828125 -21.097656 51.828125 -15.921875 C 51.828125 -9.742188 51.640625 -5.789062 51.265625 -4.0625 C 50.898438 -2.34375 49.851562 -0.988281 48.125 0 Z M 48.125 0 "/></g></g></g><g fill="#b70c34" fill-opacity="1"><g transform="translate(620.662382, 356.148703)"><g><path d="M 77 -162.15625 C 75.269531 -163.882812 73.789062 -166.84375 72.5625 -171.03125 C 71.332031 -175.226562 71.332031 -177.328125 72.5625 -177.328125 C 74.539062 -177.578125 76.820312 -179.738281 79.40625 -183.8125 C 82 -187.882812 83.171875 -191.28125 82.921875 -194 C 82.921875 -194.976562 83.289062 -195.898438 84.03125 -196.765625 C 84.78125 -197.628906 85.644531 -198.1875 86.625 -198.4375 C 88.601562 -199.664062 90.332031 -200.28125 91.8125 -200.28125 C 96.007812 -200.28125 99.835938 -197.320312 103.296875 -191.40625 C 104.773438 -188.195312 105.515625 -185.359375 105.515625 -182.890625 C 105.515625 -180.671875 104.894531 -178.382812 103.65625 -176.03125 C 102.425781 -173.6875 100.207031 -170.664062 97 -166.96875 C 92.800781 -161.289062 88.851562 -158.453125 85.15625 -158.453125 C 82.6875 -158.453125 79.96875 -159.6875 77 -162.15625 Z M 41.09375 -11.84375 C 37.632812 -15.300781 35.90625 -20.238281 35.90625 -26.65625 C 35.90625 -30.113281 36.523438 -33.078125 37.765625 -35.546875 C 37.765625 -36.773438 38.007812 -38.253906 38.5 -39.984375 C 39 -41.710938 39.25 -42.820312 39.25 -43.3125 C 39 -44.789062 39.984375 -48.863281 42.203125 -55.53125 C 46.648438 -65.40625 52.570312 -82.804688 59.96875 -107.734375 C 59.96875 -108.960938 60.460938 -110.007812 61.453125 -110.875 C 62.441406 -111.738281 63.925781 -112.296875 65.90625 -112.546875 C 67.875 -113.035156 69.226562 -113.28125 69.96875 -113.28125 C 71.445312 -113.28125 72.742188 -112.722656 73.859375 -111.609375 C 74.972656 -110.503906 76.515625 -108.472656 78.484375 -105.515625 C 79.960938 -104.035156 80.703125 -101.8125 80.703125 -98.84375 C 80.703125 -94.15625 79.097656 -88.476562 75.890625 -81.8125 C 72.679688 -74.65625 70.582031 -68.488281 69.59375 -63.3125 C 66.632812 -56.644531 64.289062 -50.472656 62.5625 -44.796875 C 62.070312 -43.316406 61.332031 -40.351562 60.34375 -35.90625 C 59.351562 -31.46875 57.992188 -27.890625 56.265625 -25.171875 C 54.785156 -18.265625 53.425781 -13.453125 52.1875 -10.734375 C 50.957031 -8.015625 49.601562 -6.65625 48.125 -6.65625 C 46.394531 -6.65625 44.050781 -8.382812 41.09375 -11.84375 Z M 41.09375 -11.84375 "/></g></g></g><g fill="#b70c34" fill-opacity="1"><g transform="translate(682.48657, 356.148703)"><g><path d="M 77.375 -4.078125 C 73.914062 -3.578125 71.320312 -3.328125 69.59375 -3.328125 C 60.46875 -3.328125 52.941406 -6.164062 47.015625 -11.84375 C 41.085938 -17.519531 38.125 -25.421875 38.125 -35.546875 C 37.144531 -46.398438 39.550781 -59.847656 45.34375 -75.890625 C 51.144531 -91.929688 58.488281 -105.382812 67.375 -116.25 C 73.550781 -123.40625 78.859375 -129.203125 83.296875 -133.640625 C 87.742188 -138.085938 91.816406 -141.050781 95.515625 -142.53125 C 100.703125 -144.75 106.503906 -145.859375 112.921875 -145.859375 C 117.359375 -144.878906 121.734375 -143.03125 126.046875 -140.3125 C 130.367188 -137.59375 132.53125 -134.878906 132.53125 -132.171875 L 134.390625 -130.3125 C 135.867188 -130.3125 137.222656 -128.519531 138.453125 -124.9375 C 139.691406 -121.363281 140.3125 -117.476562 140.3125 -113.28125 C 140.3125 -109.832031 139.695312 -106.875 138.46875 -104.40625 C 137.476562 -99.71875 135.8125 -95.644531 133.46875 -92.1875 C 131.125 -88.726562 128.835938 -87 126.609375 -87 C 123.898438 -87 122.546875 -86.257812 122.546875 -84.78125 C 122.546875 -83.789062 122.050781 -83.296875 121.0625 -83.296875 C 119.820312 -83.296875 118.335938 -84.035156 116.609375 -85.515625 C 114.890625 -86.992188 113.660156 -88.722656 112.921875 -90.703125 C 112.921875 -91.441406 113.410156 -93.539062 114.390625 -97 C 115.378906 -100.457031 116.367188 -104.28125 117.359375 -108.46875 C 118.097656 -111.4375 118.46875 -114.03125 118.46875 -116.25 C 118.46875 -121.1875 116.617188 -123.65625 112.921875 -123.65625 C 110.941406 -123.65625 108.96875 -123.160156 107 -122.171875 C 97.125 -116.742188 88.359375 -108.101562 80.703125 -96.25 C 73.054688 -84.40625 66.640625 -68.117188 61.453125 -47.390625 C 60.222656 -41.960938 59.609375 -37.644531 59.609375 -34.4375 C 59.609375 -31.96875 59.789062 -29.988281 60.15625 -28.5 C 60.53125 -27.019531 60.960938 -26.160156 61.453125 -25.921875 C 62.691406 -25.421875 65.285156 -25.171875 69.234375 -25.171875 C 78.359375 -25.171875 84.773438 -26.28125 88.484375 -28.5 C 96.378906 -32.695312 105.140625 -38.375 114.765625 -45.53125 C 115.753906 -46.269531 117.234375 -47.566406 119.203125 -49.421875 C 121.179688 -51.273438 123.035156 -52.570312 124.765625 -53.3125 C 126.492188 -56.03125 128.097656 -57.695312 129.578125 -58.3125 C 131.054688 -58.925781 133.398438 -59.234375 136.609375 -59.234375 C 139.816406 -58.242188 142.40625 -56.945312 144.375 -55.34375 C 146.351562 -53.738281 146.359375 -52.441406 144.390625 -51.453125 C 143.648438 -51.453125 143.15625 -51.207031 142.90625 -50.71875 C 142.65625 -50.226562 142.53125 -49.859375 142.53125 -49.609375 C 143.03125 -48.378906 141.054688 -45.296875 136.609375 -40.359375 C 132.171875 -35.421875 127.234375 -30.789062 121.796875 -26.46875 C 116.367188 -22.144531 112.671875 -19.984375 110.703125 -19.984375 C 109.710938 -19.984375 108.847656 -19.859375 108.109375 -19.609375 C 107.367188 -19.367188 107 -18.753906 107 -17.765625 C 107 -16.785156 103.234375 -14.503906 95.703125 -10.921875 C 88.171875 -7.335938 82.0625 -5.054688 77.375 -4.078125 Z M 77.375 -4.078125 "/></g></g></g><g fill="#b70c34" fill-opacity="1"><g transform="translate(806.505418, 356.148703)"><g><path d="M 48.125 -19.984375 C 44.425781 -19.984375 41.585938 -20.847656 39.609375 -22.578125 C 37.640625 -24.304688 36.34375 -25.664062 35.71875 -26.65625 C 35.101562 -27.644531 34.796875 -28.878906 34.796875 -30.359375 C 34.796875 -31.347656 35.660156 -35.914062 37.390625 -44.0625 L 40.71875 -56.265625 C 43.1875 -66.390625 45.410156 -74.785156 47.390625 -81.453125 C 48.378906 -87.617188 50.289062 -94.15625 53.125 -101.0625 C 55.96875 -107.976562 57.632812 -112.175781 58.125 -113.65625 C 60.101562 -120.8125 63.925781 -131.921875 69.59375 -146.984375 L 80.703125 -176.96875 C 89.347656 -200.414062 94.53125 -214.726562 96.25 -219.90625 L 102.1875 -236.203125 C 102.1875 -240.148438 104.160156 -242.125 108.109375 -242.125 C 111.554688 -242.125 114.453125 -240.207031 116.796875 -236.375 C 119.148438 -232.550781 120.328125 -228.171875 120.328125 -223.234375 C 120.328125 -219.535156 119.582031 -215.957031 118.09375 -212.5 C 114.644531 -205.101562 110.882812 -195.785156 106.8125 -184.546875 C 102.738281 -173.316406 100.082031 -165.976562 98.84375 -162.53125 C 90.457031 -138.832031 84.410156 -123.035156 80.703125 -115.140625 C 80.703125 -114.148438 80.332031 -112.421875 79.59375 -109.953125 C 78.851562 -107.484375 77.988281 -105.265625 77 -103.296875 L 72.9375 -95.140625 C 72.9375 -94.398438 71.578125 -89.21875 68.859375 -79.59375 C 65.398438 -68.976562 63.300781 -61.203125 62.5625 -56.265625 C 63.800781 -58.492188 66.394531 -61.890625 70.34375 -66.453125 C 74.289062 -71.015625 77.992188 -74.78125 81.453125 -77.75 C 95.023438 -89.34375 103.414062 -96.253906 106.625 -98.484375 C 109.582031 -100.203125 112.046875 -101.800781 114.015625 -103.28125 C 115.992188 -104.769531 117.351562 -105.757812 118.09375 -106.25 C 118.09375 -107.488281 119.453125 -108.109375 122.171875 -108.109375 C 123.160156 -108.109375 123.710938 -108.226562 123.828125 -108.46875 C 123.953125 -108.71875 124.015625 -109.335938 124.015625 -110.328125 C 124.015625 -112.054688 126.851562 -113.597656 132.53125 -114.953125 C 138.207031 -116.304688 143.269531 -116.984375 147.71875 -116.984375 C 150.675781 -116.984375 153.019531 -116.363281 154.75 -115.125 C 156.476562 -113.894531 158.703125 -111.1875 161.421875 -107 C 165.609375 -101.070312 167.703125 -94.648438 167.703125 -87.734375 C 167.703125 -83.785156 166.960938 -79.71875 165.484375 -75.53125 C 165.484375 -73.550781 165.175781 -70.523438 164.5625 -66.453125 C 163.945312 -62.378906 163.640625 -58.863281 163.640625 -55.90625 L 161.421875 -44.0625 L 167.34375 -44.0625 C 169.070312 -44.0625 170.738281 -43.8125 172.34375 -43.3125 C 173.945312 -42.820312 174.992188 -42.453125 175.484375 -42.203125 C 177.703125 -39.484375 179.675781 -38.125 181.40625 -38.125 C 183.625 -38.125 184.734375 -37.265625 184.734375 -35.546875 C 184.734375 -34.554688 184.238281 -33.320312 183.25 -31.84375 C 182.269531 -30.363281 180.914062 -29.128906 179.1875 -28.140625 C 172.769531 -24.191406 167.335938 -22.21875 162.890625 -22.21875 C 158.703125 -22.21875 154.382812 -24.191406 149.9375 -28.140625 C 144.507812 -33.566406 141.796875 -40.109375 141.796875 -47.765625 C 141.796875 -51.710938 142.535156 -56.398438 144.015625 -61.828125 L 145.125 -73.671875 C 145.613281 -79.597656 145.859375 -83.300781 145.859375 -84.78125 C 145.859375 -90.457031 144.503906 -93.296875 141.796875 -93.296875 C 138.335938 -93.296875 131.734375 -90.269531 121.984375 -84.21875 C 112.234375 -78.175781 102.175781 -70.648438 91.8125 -61.640625 C 81.445312 -52.628906 73.179688 -43.5625 67.015625 -34.4375 C 63.304688 -29.738281 60.15625 -26.21875 57.5625 -23.875 C 54.976562 -21.53125 52.570312 -20.234375 50.34375 -19.984375 Z M 48.125 -19.984375 "/></g></g></g><g fill="#b70c34" fill-opacity="1"><g transform="translate(970.876801, 356.148703)"><g><path d="M 56.640625 -19.25 C 51.953125 -17.519531 48.375 -16.65625 45.90625 -16.65625 C 42.445312 -16.65625 38.742188 -18.140625 34.796875 -21.109375 C 31.347656 -24.554688 29.625 -28.007812 29.625 -31.46875 C 29.625 -36.894531 33.816406 -42.445312 42.203125 -48.125 C 47.140625 -51.09375 50.71875 -52.578125 52.9375 -52.578125 C 54.175781 -52.578125 57.140625 -51.710938 61.828125 -49.984375 C 68.492188 -46.035156 71.828125 -41.46875 71.828125 -36.28125 C 71.828125 -33.320312 70.53125 -30.359375 67.9375 -27.390625 C 65.34375 -24.429688 61.578125 -21.71875 56.640625 -19.25 Z M 56.640625 -19.25 "/></g></g></g><g fill="#b70c34" fill-opacity="1"><g transform="translate(150.314148, 651.405311)"><g><path d="M 83.296875 35.171875 C 76.878906 36.160156 72.6875 36.65625 70.71875 36.65625 C 65.78125 36.65625 59.851562 35.664062 52.9375 33.6875 C 49.726562 32.695312 47.382812 31.582031 45.90625 30.34375 C 44.425781 29.113281 42.757812 27.328125 40.90625 24.984375 C 39.050781 22.640625 37.632812 20.851562 36.65625 19.625 C 32.207031 13.445312 29.984375 8.015625 29.984375 3.328125 C 29.984375 -0.367188 31.710938 -1.722656 35.171875 -0.734375 C 37.640625 0.492188 40.351562 2.957031 43.3125 6.65625 C 46.28125 9.625 49.488281 11.785156 52.9375 13.140625 C 56.394531 14.492188 60.59375 15.171875 65.53125 15.171875 C 67.257812 15.171875 70.59375 14.925781 75.53125 14.4375 C 81.445312 13.445312 88.351562 11.59375 96.25 8.875 C 104.15625 6.164062 109.957031 3.332031 113.65625 0.375 C 125.5 -7.769531 135.1875 -14.3125 142.71875 -19.25 C 150.25 -24.1875 155 -27.269531 156.96875 -28.5 C 157.46875 -29.738281 160.0625 -31.222656 164.75 -32.953125 L 174.75 -42.578125 C 181.164062 -49.484375 185.359375 -53.675781 187.328125 -55.15625 C 187.578125 -56.882812 188.007812 -58.675781 188.625 -60.53125 C 189.238281 -62.382812 189.546875 -63.800781 189.546875 -64.78125 C 192.515625 -67.988281 196.957031 -75.703125 202.875 -87.921875 C 208.800781 -100.140625 212.875 -110.691406 215.09375 -119.578125 C 217.3125 -131.179688 218.421875 -141.425781 218.421875 -150.3125 C 218.421875 -165.363281 215.769531 -178.007812 210.46875 -188.25 C 205.164062 -198.5 197.453125 -207.941406 187.328125 -216.578125 C 182.148438 -220.773438 173.570312 -225.398438 161.59375 -230.453125 C 149.625 -235.515625 142.65625 -237.675781 140.6875 -236.9375 C 139.445312 -236.6875 136.113281 -229.585938 130.6875 -215.640625 C 125.257812 -201.703125 117.851562 -181.648438 108.46875 -155.484375 L 96.625 -122.546875 C 95.632812 -118.597656 94.519531 -114.894531 93.28125 -111.4375 C 92.050781 -107.976562 91.066406 -104.894531 90.328125 -102.1875 C 87.117188 -93.050781 85.515625 -87.863281 85.515625 -86.625 C 82.804688 -82.4375 80.648438 -76.945312 79.046875 -70.15625 C 77.441406 -63.363281 75.648438 -51.828125 73.671875 -35.546875 C 71.453125 -27.398438 70.46875 -23.695312 70.71875 -24.4375 C 69.726562 -20.238281 68.863281 -16.78125 68.125 -14.0625 C 67.382812 -11.351562 66.644531 -10.117188 65.90625 -10.359375 L 64.421875 -8.890625 C 64.421875 -7.398438 63.3125 -6.65625 61.09375 -6.65625 C 59.113281 -6.65625 56.890625 -7.210938 54.421875 -8.328125 C 51.953125 -9.441406 49.976562 -10.738281 48.5 -12.21875 C 47.507812 -15.675781 47.015625 -18.144531 47.015625 -19.625 C 47.015625 -22.832031 48.003906 -27.769531 49.984375 -34.4375 C 51.953125 -42.820312 55.21875 -54.601562 59.78125 -69.78125 C 64.351562 -84.96875 68.242188 -97.375 71.453125 -107 C 73.179688 -111.1875 75.648438 -119.082031 78.859375 -130.6875 C 81.566406 -139.820312 84.585938 -149.203125 87.921875 -158.828125 C 91.253906 -168.453125 93.660156 -174.5 95.140625 -176.96875 C 95.640625 -178.695312 97.304688 -183.628906 100.140625 -191.765625 C 102.984375 -199.910156 106.378906 -208.921875 110.328125 -218.796875 L 112.921875 -231.015625 L 108.84375 -232.875 C 106.625 -232.125 104.648438 -231.75 102.921875 -231.75 C 101.679688 -231.75 100.320312 -232.125 98.84375 -232.875 C 96.375 -232.125 92.976562 -233.164062 88.65625 -236 C 84.34375 -238.84375 81.941406 -241.5 81.453125 -243.96875 C 80.953125 -244.707031 80.640625 -245.816406 80.515625 -247.296875 C 80.398438 -248.785156 80.34375 -249.773438 80.34375 -250.265625 C 80.832031 -252.734375 85.765625 -255.015625 95.140625 -257.109375 C 104.523438 -259.210938 114.769531 -260.265625 125.875 -260.265625 C 130.5625 -260.265625 134.140625 -260.140625 136.609375 -259.890625 C 141.054688 -259.640625 145.3125 -258.898438 149.375 -257.671875 C 153.445312 -256.441406 158.445312 -254.59375 164.375 -252.125 L 173.265625 -248.78125 C 181.160156 -245.820312 189.613281 -240.640625 198.625 -233.234375 C 207.632812 -225.828125 215.65625 -217.125 222.6875 -207.125 C 229.71875 -197.132812 234.46875 -186.957031 236.9375 -176.59375 C 237.675781 -173.382812 238.414062 -168.941406 239.15625 -163.265625 C 239.894531 -157.585938 240.265625 -152.53125 240.265625 -148.09375 C 240.265625 -142.90625 239.773438 -139.695312 238.796875 -138.46875 C 238.054688 -137.476562 237.6875 -136.238281 237.6875 -134.75 C 237.6875 -133.269531 238.175781 -132.410156 239.15625 -132.171875 C 238.664062 -130.691406 237.800781 -127.972656 236.5625 -124.015625 C 235.332031 -120.066406 233.976562 -115.875 232.5 -111.4375 C 231.019531 -95.882812 224.109375 -77.617188 211.765625 -56.640625 C 210.523438 -56.640625 209.535156 -56.453125 208.796875 -56.078125 C 208.054688 -55.710938 208.179688 -55.40625 209.171875 -55.15625 C 209.171875 -53.925781 207.8125 -51.582031 205.09375 -48.125 C 204.351562 -47.632812 202.8125 -45.84375 200.46875 -42.75 C 198.125 -39.664062 196.457031 -37.753906 195.46875 -37.015625 C 195.226562 -35.296875 194.488281 -33.878906 193.25 -32.765625 C 192.019531 -31.648438 190.910156 -31.09375 189.921875 -31.09375 C 189.921875 -31.09375 189.734375 -31.03125 189.359375 -30.90625 C 188.992188 -30.789062 188.8125 -30.363281 188.8125 -29.625 C 184.363281 -23.195312 176.28125 -15.296875 164.5625 -5.921875 C 152.84375 3.449219 142.414062 10.113281 133.28125 14.0625 C 130.8125 15.789062 127.910156 17.394531 124.578125 18.875 C 121.242188 20.363281 118.960938 21.351562 117.734375 21.84375 C 115.753906 23.570312 110.753906 25.976562 102.734375 29.0625 C 94.710938 32.144531 88.234375 34.179688 83.296875 35.171875 Z M 83.296875 35.171875 "/></g></g></g><g fill="#b70c34" fill-opacity="1"><g transform="translate(356.889092, 651.405311)"><g><path d="M 77 -162.15625 C 75.269531 -163.882812 73.789062 -166.84375 72.5625 -171.03125 C 71.332031 -175.226562 71.332031 -177.328125 72.5625 -177.328125 C 74.539062 -177.578125 76.820312 -179.738281 79.40625 -183.8125 C 82 -187.882812 83.171875 -191.28125 82.921875 -194 C 82.921875 -194.976562 83.289062 -195.898438 84.03125 -196.765625 C 84.78125 -197.628906 85.644531 -198.1875 86.625 -198.4375 C 88.601562 -199.664062 90.332031 -200.28125 91.8125 -200.28125 C 96.007812 -200.28125 99.835938 -197.320312 103.296875 -191.40625 C 104.773438 -188.195312 105.515625 -185.359375 105.515625 -182.890625 C 105.515625 -180.671875 104.894531 -178.382812 103.65625 -176.03125 C 102.425781 -173.6875 100.207031 -170.664062 97 -166.96875 C 92.800781 -161.289062 88.851562 -158.453125 85.15625 -158.453125 C 82.6875 -158.453125 79.96875 -159.6875 77 -162.15625 Z M 41.09375 -11.84375 C 37.632812 -15.300781 35.90625 -20.238281 35.90625 -26.65625 C 35.90625 -30.113281 36.523438 -33.078125 37.765625 -35.546875 C 37.765625 -36.773438 38.007812 -38.253906 38.5 -39.984375 C 39 -41.710938 39.25 -42.820312 39.25 -43.3125 C 39 -44.789062 39.984375 -48.863281 42.203125 -55.53125 C 46.648438 -65.40625 52.570312 -82.804688 59.96875 -107.734375 C 59.96875 -108.960938 60.460938 -110.007812 61.453125 -110.875 C 62.441406 -111.738281 63.925781 -112.296875 65.90625 -112.546875 C 67.875 -113.035156 69.226562 -113.28125 69.96875 -113.28125 C 71.445312 -113.28125 72.742188 -112.722656 73.859375 -111.609375 C 74.972656 -110.503906 76.515625 -108.472656 78.484375 -105.515625 C 79.960938 -104.035156 80.703125 -101.8125 80.703125 -98.84375 C 80.703125 -94.15625 79.097656 -88.476562 75.890625 -81.8125 C 72.679688 -74.65625 70.582031 -68.488281 69.59375 -63.3125 C 66.632812 -56.644531 64.289062 -50.472656 62.5625 -44.796875 C 62.070312 -43.316406 61.332031 -40.351562 60.34375 -35.90625 C 59.351562 -31.46875 57.992188 -27.890625 56.265625 -25.171875 C 54.785156 -18.265625 53.425781 -13.453125 52.1875 -10.734375 C 50.957031 -8.015625 49.601562 -6.65625 48.125 -6.65625 C 46.394531 -6.65625 44.050781 -8.382812 41.09375 -11.84375 Z M 41.09375 -11.84375 "/></g></g></g><g fill="#b70c34" fill-opacity="1"><g transform="translate(418.713258, 651.405311)"><g><path d="M 44.0625 -12.953125 C 42.082031 -14.429688 40.722656 -15.785156 39.984375 -17.015625 C 39.242188 -18.253906 38.875 -20.109375 38.875 -22.578125 C 38.875 -24.804688 39 -26.660156 39.25 -28.140625 C 39.988281 -36.523438 41.835938 -46.273438 44.796875 -57.390625 L 46.640625 -64.78125 C 47.390625 -70.957031 51.710938 -83.914062 59.609375 -103.65625 C 67.503906 -123.40625 73.921875 -136.859375 78.859375 -144.015625 C 80.828125 -145.242188 82.925781 -145.859375 85.15625 -145.859375 C 88.363281 -145.859375 91.078125 -144.75 93.296875 -142.53125 C 94.773438 -141.539062 95.515625 -139.691406 95.515625 -136.984375 C 95.515625 -134.515625 94.585938 -130.875 92.734375 -126.0625 C 90.890625 -121.25 87.742188 -114.148438 83.296875 -104.765625 C 82.304688 -102.796875 80.640625 -99.09375 78.296875 -93.65625 C 75.953125 -88.226562 74.78125 -85.023438 74.78125 -84.046875 C 74.78125 -83.546875 74.90625 -83.296875 75.15625 -83.296875 C 75.644531 -83.296875 76.132812 -83.476562 76.625 -83.84375 C 77.125 -84.21875 77.617188 -84.53125 78.109375 -84.78125 C 80.828125 -89.46875 87.429688 -95.882812 97.921875 -104.03125 C 108.410156 -112.175781 115.628906 -117.234375 119.578125 -119.203125 C 121.304688 -120.191406 123.523438 -121.179688 126.234375 -122.171875 C 128.953125 -123.160156 130.804688 -123.898438 131.796875 -124.390625 C 135.742188 -126.367188 140.429688 -127.359375 145.859375 -127.359375 C 149.316406 -127.359375 152.34375 -126.800781 154.9375 -125.6875 C 157.53125 -124.570312 159.320312 -122.90625 160.3125 -120.6875 C 160.550781 -118.957031 161.222656 -117.597656 162.328125 -116.609375 C 163.441406 -115.628906 164.25 -115.015625 164.75 -114.765625 C 165.488281 -114.765625 165.976562 -114.457031 166.21875 -113.84375 C 166.46875 -113.226562 166.59375 -112.796875 166.59375 -112.546875 C 166.59375 -110.816406 165.601562 -109.765625 163.625 -109.390625 C 161.65625 -109.023438 158.082031 -108.71875 152.90625 -108.46875 C 150.1875 -108.226562 147.34375 -107.613281 144.375 -106.625 C 141.414062 -105.632812 138.457031 -104.398438 135.5 -102.921875 C 121.675781 -95.023438 111.367188 -88.851562 104.578125 -84.40625 C 97.796875 -79.96875 90.953125 -73.921875 84.046875 -66.265625 C 81.328125 -63.304688 77.742188 -58 73.296875 -50.34375 C 71.578125 -48.625 69.789062 -44.125 67.9375 -36.84375 C 66.082031 -29.5625 65.15625 -25.054688 65.15625 -23.328125 C 64.90625 -22.585938 64.410156 -21.164062 63.671875 -19.0625 C 62.929688 -16.96875 61.820312 -14.929688 60.34375 -12.953125 C 57.382812 -9.003906 54.914062 -7.03125 52.9375 -7.03125 C 50.71875 -7.03125 47.757812 -9.003906 44.0625 -12.953125 Z M 44.0625 -12.953125 "/></g></g></g><g fill="#b70c34" fill-opacity="1"><g transform="translate(544.583155, 651.405311)"><g><path d="M 102.1875 -12.953125 C 96.007812 -7.523438 88.601562 -4.8125 79.96875 -4.8125 C 73.800781 -4.8125 67.9375 -6.289062 62.375 -9.25 C 56.820312 -12.21875 52.195312 -16.289062 48.5 -21.46875 C 45.289062 -25.414062 42.945312 -29.859375 41.46875 -34.796875 C 39.988281 -39.734375 39.25 -45.78125 39.25 -52.9375 C 39.25 -55.40625 39.492188 -60.34375 39.984375 -67.75 C 40.722656 -76.882812 43.742188 -86.382812 49.046875 -96.25 C 54.359375 -106.125 60.960938 -114.945312 68.859375 -122.71875 C 76.753906 -130.5 84.53125 -135.867188 92.1875 -138.828125 C 96.132812 -141.296875 99.710938 -142.53125 102.921875 -142.53125 C 104.648438 -142.53125 106.378906 -142.40625 108.109375 -142.15625 C 109.835938 -141.914062 111.6875 -141.671875 113.65625 -141.421875 C 119.082031 -140.679688 123.210938 -139.628906 126.046875 -138.265625 C 128.890625 -136.910156 131.300781 -134.878906 133.28125 -132.171875 C 139.445312 -125.992188 142.53125 -118.835938 142.53125 -110.703125 C 141.539062 -104.773438 137.710938 -97.984375 131.046875 -90.328125 C 124.390625 -82.679688 116.375 -76.515625 107 -71.828125 C 102.550781 -70.335938 97.488281 -69.59375 91.8125 -69.59375 C 84.164062 -69.59375 77.992188 -71.195312 73.296875 -74.40625 C 71.078125 -75.15625 69.351562 -75.53125 68.125 -75.53125 C 65.894531 -75.53125 64.222656 -74.046875 63.109375 -71.078125 C 62.003906 -68.117188 60.957031 -62.691406 59.96875 -54.796875 C 59.726562 -53.066406 59.609375 -50.597656 59.609375 -47.390625 C 59.609375 -34.796875 63.800781 -27.882812 72.1875 -26.65625 C 77.863281 -25.414062 81.9375 -24.796875 84.40625 -24.796875 C 87.375 -24.796875 90.707031 -25.785156 94.40625 -27.765625 L 101.4375 -31.84375 C 102.914062 -32.582031 104.269531 -33.566406 105.5 -34.796875 C 106.738281 -36.035156 107.851562 -37.144531 108.84375 -38.125 C 109.332031 -38.625 110.070312 -39.425781 111.0625 -40.53125 C 112.050781 -41.644531 112.976562 -42.382812 113.84375 -42.75 C 114.707031 -43.125 115.507812 -43.3125 116.25 -43.3125 C 117.238281 -43.3125 118.347656 -42.753906 119.578125 -41.640625 C 120.816406 -40.535156 121.804688 -39.738281 122.546875 -39.25 C 124.765625 -39.25 125.253906 -37.703125 124.015625 -34.609375 C 122.785156 -31.523438 120.132812 -27.945312 116.0625 -23.875 C 111.988281 -19.800781 107.363281 -16.160156 102.1875 -12.953125 Z M 101.8125 -91.4375 C 106.007812 -93.164062 110.265625 -96.25 114.578125 -100.6875 C 118.898438 -105.132812 121.0625 -108.84375 121.0625 -111.8125 C 121.0625 -114.769531 119.945312 -117.234375 117.71875 -119.203125 C 115.5 -121.179688 112.414062 -122.171875 108.46875 -122.171875 C 105.507812 -122.171875 103.289062 -121.925781 101.8125 -121.4375 C 98.351562 -120.445312 94.28125 -117.789062 89.59375 -113.46875 C 84.90625 -109.15625 80.832031 -104.773438 77.375 -100.328125 C 73.914062 -95.890625 72.554688 -93.300781 73.296875 -92.5625 C 74.535156 -90.332031 79.347656 -89.21875 87.734375 -89.21875 C 93.410156 -89.21875 98.101562 -89.957031 101.8125 -91.4375 Z M 101.8125 -91.4375 "/></g></g></g><g fill="#b70c34" fill-opacity="1"><g transform="translate(657.49584, 651.405311)"><g><path d="M 41.46875 -1.84375 C 38.5 -2.832031 35.410156 -5.734375 32.203125 -10.546875 C 28.992188 -15.359375 27.390625 -19.738281 27.390625 -23.6875 L 32.578125 -39.25 L 39.609375 -61.453125 C 41.835938 -64.660156 43.628906 -68.546875 44.984375 -73.109375 C 46.335938 -77.679688 47.140625 -80.335938 47.390625 -81.078125 C 49.859375 -85.765625 54.796875 -97.117188 62.203125 -115.140625 L 69.234375 -132.171875 C 76.140625 -146.972656 81.816406 -160.300781 86.265625 -172.15625 L 92.1875 -185.84375 L 99.21875 -202.140625 C 107.851562 -223.117188 112.664062 -235.335938 113.65625 -238.796875 C 113.65625 -240.765625 114.085938 -242.242188 114.953125 -243.234375 C 115.816406 -244.222656 116.742188 -244.71875 117.734375 -244.71875 C 118.960938 -245.945312 120.9375 -246.5625 123.65625 -246.5625 C 124.882812 -246.5625 126.859375 -244.648438 129.578125 -240.828125 C 132.296875 -237.003906 133.65625 -233.734375 133.65625 -231.015625 C 133.65625 -226.816406 131.675781 -219.222656 127.71875 -208.234375 C 123.769531 -197.253906 118.46875 -185.101562 111.8125 -171.78125 C 87.625 -119.707031 76.515625 -92.679688 78.484375 -90.703125 C 79.472656 -91.191406 81.570312 -92.238281 84.78125 -93.84375 C 87.988281 -95.445312 91.320312 -97.484375 94.78125 -99.953125 C 97 -101.191406 99.09375 -102.488281 101.0625 -103.84375 C 103.039062 -105.195312 104.769531 -106.367188 106.25 -107.359375 C 113.90625 -112.546875 118.597656 -115.382812 120.328125 -115.875 C 121.804688 -116.863281 124.644531 -118.59375 128.84375 -121.0625 C 133.28125 -124.019531 135.625 -125.625 135.875 -125.875 C 138.832031 -127.351562 141.300781 -128.09375 143.28125 -128.09375 C 144.757812 -128.09375 146.113281 -127.597656 147.34375 -126.609375 C 148.582031 -125.628906 150.066406 -124.148438 151.796875 -122.171875 C 153.273438 -120.441406 154.015625 -118.710938 154.015625 -116.984375 C 154.015625 -115.253906 153.023438 -113.460938 151.046875 -111.609375 C 149.078125 -109.765625 145.742188 -107.363281 141.046875 -104.40625 C 137.835938 -102.175781 134.503906 -100.070312 131.046875 -98.09375 C 127.597656 -96.125 124.269531 -94.15625 121.0625 -92.1875 C 103.289062 -81.320312 94.160156 -75.519531 93.671875 -74.78125 C 94.160156 -73.789062 95.328125 -71.566406 97.171875 -68.109375 C 99.023438 -64.660156 100.816406 -61.703125 102.546875 -59.234375 L 108.109375 -49.609375 C 111.066406 -45.410156 112.546875 -42.695312 112.546875 -41.46875 C 114.765625 -35.289062 117.785156 -30.472656 121.609375 -27.015625 C 125.441406 -23.566406 129.578125 -21.84375 134.015625 -21.84375 C 136.234375 -21.84375 138.828125 -22.457031 141.796875 -23.6875 C 145.492188 -25.175781 148.453125 -25.921875 150.671875 -25.921875 C 154.128906 -25.921875 156.476562 -23.941406 157.71875 -19.984375 C 158.457031 -18.503906 158.828125 -17.394531 158.828125 -16.65625 C 158.828125 -15.664062 157.097656 -13.445312 153.640625 -10 C 147.222656 -3.582031 140.679688 -0.375 134.015625 -0.375 C 131.796875 -0.375 129.207031 -0.988281 126.25 -2.21875 C 122.539062 -1.96875 117.910156 -4.4375 112.359375 -9.625 C 106.804688 -14.8125 99.09375 -23.820312 89.21875 -36.65625 C 89.21875 -37.632812 87.863281 -40.84375 85.15625 -46.28125 C 84.164062 -48.5 83.050781 -50.53125 81.8125 -52.375 C 80.582031 -54.226562 79.722656 -55.523438 79.234375 -56.265625 C 79.234375 -57.253906 78.675781 -58.550781 77.5625 -60.15625 C 76.445312 -61.757812 75.644531 -63.054688 75.15625 -64.046875 C 72.4375 -64.785156 70.273438 -64.535156 68.671875 -63.296875 C 67.066406 -62.066406 65.585938 -60.34375 64.234375 -58.125 C 62.878906 -55.90625 61.832031 -54.300781 61.09375 -53.3125 C 58.625 -46.894531 56.15625 -39.054688 53.6875 -29.796875 C 51.21875 -20.546875 50.351562 -14.5625 51.09375 -11.84375 C 51.09375 -7.894531 50.472656 -5.238281 49.234375 -3.875 C 48.003906 -2.519531 45.414062 -1.84375 41.46875 -1.84375 Z M 41.46875 -1.84375 "/></g></g></g><g fill="#b70c34" fill-opacity="1"><g transform="translate(785.216743, 651.405311)"><g><path d="M 66.265625 -2.59375 C 62.316406 -3.332031 58.304688 -5.984375 54.234375 -10.546875 C 50.160156 -15.117188 47.507812 -19.378906 46.28125 -23.328125 C 46.28125 -23.816406 46.03125 -24.367188 45.53125 -24.984375 C 45.039062 -25.609375 44.671875 -26.039062 44.421875 -26.28125 C 43.441406 -27.019531 42.953125 -31.09375 42.953125 -38.5 C 42.953125 -44.425781 43.257812 -50.597656 43.875 -57.015625 C 44.488281 -63.429688 45.289062 -68.613281 46.28125 -72.5625 L 52.9375 -92.1875 L 58.125 -107 L 68.125 -128.46875 L 53.3125 -132.53125 C 51.582031 -132.78125 50.160156 -133.644531 49.046875 -135.125 C 47.941406 -136.601562 47.390625 -137.960938 47.390625 -139.203125 C 47.390625 -141.171875 48.4375 -143.570312 50.53125 -146.40625 C 52.632812 -149.25 54.300781 -150.671875 55.53125 -150.671875 C 56.269531 -150.429688 58.242188 -150.3125 61.453125 -150.3125 C 68.859375 -150.3125 74.410156 -150.679688 78.109375 -151.421875 C 80.578125 -152.410156 82.304688 -154.382812 83.296875 -157.34375 C 84.285156 -159.320312 85.457031 -161.789062 86.8125 -164.75 C 88.175781 -167.707031 89.472656 -170.421875 90.703125 -172.890625 C 91.441406 -174.367188 92.613281 -176.648438 94.21875 -179.734375 C 95.820312 -182.828125 97.859375 -186.347656 100.328125 -190.296875 C 100.816406 -191.035156 101.925781 -192.820312 103.65625 -195.65625 C 105.382812 -198.5 107.484375 -200.90625 109.953125 -202.875 C 111.679688 -204.601562 113.78125 -205.46875 116.25 -205.46875 C 118.71875 -205.46875 121.925781 -203.863281 125.875 -200.65625 C 126.363281 -199.914062 127.039062 -198.925781 127.90625 -197.6875 C 128.769531 -196.457031 129.203125 -195.347656 129.203125 -194.359375 C 129.203125 -193.378906 128.21875 -191.285156 126.25 -188.078125 C 124.757812 -185.109375 123.335938 -182.453125 121.984375 -180.109375 C 120.628906 -177.765625 119.457031 -175.726562 118.46875 -174 C 115.507812 -169.0625 113.410156 -165.359375 112.171875 -162.890625 C 109.703125 -159.679688 108.46875 -157.210938 108.46875 -155.484375 C 108.46875 -153.765625 110.070312 -152.90625 113.28125 -152.90625 C 116.738281 -152.90625 122.539062 -153.644531 130.6875 -155.125 C 134.144531 -155.613281 136.488281 -155.859375 137.71875 -155.859375 C 146.351562 -155.859375 151.046875 -152.28125 151.796875 -145.125 C 152.035156 -143.644531 152.15625 -141.914062 152.15625 -139.9375 C 152.15625 -136.488281 150.984375 -134.390625 148.640625 -133.640625 C 146.296875 -132.898438 141.050781 -132.53125 132.90625 -132.53125 C 125.007812 -131.300781 116.863281 -130.6875 108.46875 -130.6875 C 106.988281 -130.6875 105.320312 -130.625 103.46875 -130.5 C 101.625 -130.375 99.710938 -130.066406 97.734375 -129.578125 C 95.765625 -129.085938 94.347656 -128.347656 93.484375 -127.359375 C 92.617188 -126.367188 91.691406 -124.765625 90.703125 -122.546875 C 89.960938 -121.804688 88.234375 -118.96875 85.515625 -114.03125 C 82.066406 -106.875 79.847656 -102.550781 78.859375 -101.0625 C 72.191406 -81.320312 67.253906 -61.085938 64.046875 -40.359375 C 63.554688 -36.410156 63.3125 -33.941406 63.3125 -32.953125 C 63.3125 -29.242188 64.546875 -26.648438 67.015625 -25.171875 C 69.484375 -23.691406 73.675781 -22.953125 79.59375 -22.953125 C 87.988281 -22.953125 95.269531 -23.816406 101.4375 -25.546875 C 108.84375 -28.753906 114.394531 -31.46875 118.09375 -33.6875 C 120.320312 -34.925781 122.359375 -36.097656 124.203125 -37.203125 C 126.054688 -38.316406 127.351562 -39.117188 128.09375 -39.609375 C 128.832031 -41.085938 129.695312 -41.828125 130.6875 -41.828125 C 132.664062 -41.828125 134.394531 -39.851562 135.875 -35.90625 C 135.875 -31.957031 135.007812 -28.503906 133.28125 -25.546875 C 131.550781 -22.585938 127.234375 -19.128906 120.328125 -15.171875 C 106.003906 -6.046875 91.6875 -1.484375 77.375 -1.484375 C 73.425781 -1.484375 69.722656 -1.851562 66.265625 -2.59375 Z M 66.265625 -2.59375 "/></g></g></g><g fill="#b70c34" fill-opacity="1"><g transform="translate(900.350634, 651.405311)"><g><path d="M 56.640625 -19.25 C 51.953125 -17.519531 48.375 -16.65625 45.90625 -16.65625 C 42.445312 -16.65625 38.742188 -18.140625 34.796875 -21.109375 C 31.347656 -24.554688 29.625 -28.007812 29.625 -31.46875 C 29.625 -36.894531 33.816406 -42.445312 42.203125 -48.125 C 47.140625 -51.09375 50.71875 -52.578125 52.9375 -52.578125 C 54.175781 -52.578125 57.140625 -51.710938 61.828125 -49.984375 C 68.492188 -46.035156 71.828125 -41.46875 71.828125 -36.28125 C 71.828125 -33.320312 70.53125 -30.359375 67.9375 -27.390625 C 65.34375 -24.429688 61.578125 -21.71875 56.640625 -19.25 Z M 56.640625 -19.25 "/></g></g></g><g fill="#b70c34" fill-opacity="1"><g transform="translate(1.503513, 946.661918)"><g><path d="M 184.375 19.625 C 181.164062 19.863281 178.265625 19.179688 175.671875 17.578125 C 173.078125 15.972656 171.285156 13.941406 170.296875 11.484375 C 168.816406 9.992188 167.210938 7.769531 165.484375 4.8125 C 163.753906 1.851562 162.644531 -0.984375 162.15625 -3.703125 C 161.164062 -15.546875 160.671875 -24.1875 160.671875 -29.625 C 160.671875 -36.53125 161.039062 -45.90625 161.78125 -57.75 C 162.519531 -69.101562 163.9375 -79.773438 166.03125 -89.765625 C 168.132812 -99.765625 171.039062 -112.046875 174.75 -126.609375 C 176.226562 -131.304688 177.335938 -135.316406 178.078125 -138.640625 C 178.816406 -141.972656 178.816406 -143.640625 178.078125 -143.640625 C 176.835938 -143.398438 174.613281 -140.253906 171.40625 -134.203125 C 168.195312 -128.160156 164.988281 -121.679688 161.78125 -114.765625 C 160.300781 -112.054688 158.878906 -109.15625 157.515625 -106.0625 C 156.160156 -102.976562 154.742188 -100.082031 153.265625 -97.375 C 146.359375 -82.0625 133.648438 -58.859375 115.140625 -27.765625 C 112.921875 -25.046875 109.832031 -20.726562 105.875 -14.8125 C 98.226562 -3.207031 91.9375 4.8125 87 9.25 C 80.832031 15.175781 74.660156 18.140625 68.484375 18.140625 C 64.046875 18.140625 60.347656 16.660156 57.390625 13.703125 C 54.179688 9.753906 52.578125 5.925781 52.578125 2.21875 C 52.578125 1.226562 52.820312 -0.5 53.3125 -2.96875 C 52.570312 -9.132812 53.25 -21.78125 55.34375 -40.90625 C 57.445312 -60.03125 59.609375 -76.015625 61.828125 -88.859375 C 63.554688 -100.703125 67.378906 -120.195312 73.296875 -147.34375 L 81.453125 -187.328125 C 82.929688 -191.035156 85.273438 -198.441406 88.484375 -209.546875 L 91.8125 -221.765625 C 92.0625 -226.203125 93.050781 -229.46875 94.78125 -231.5625 C 96.507812 -233.664062 98.601562 -234.71875 101.0625 -234.71875 C 104.519531 -234.71875 107.484375 -233.113281 109.953125 -229.90625 C 113.898438 -225.457031 115.875 -220.148438 115.875 -213.984375 C 115.875 -209.046875 114.765625 -203.988281 112.546875 -198.8125 C 101.441406 -171.65625 92.554688 -135.863281 85.890625 -91.4375 C 83.421875 -76.875 81.132812 -61.265625 79.03125 -44.609375 C 76.9375 -27.953125 76.382812 -19.5 77.375 -19.25 C 79.351562 -18.757812 82.066406 -20.300781 85.515625 -23.875 C 88.972656 -27.457031 92.0625 -32.207031 94.78125 -38.125 C 111.5625 -66.019531 131.179688 -101.8125 153.640625 -145.5 C 154.128906 -146.238281 159.5625 -156.359375 169.9375 -175.859375 L 178.8125 -192.515625 C 179.550781 -193.992188 180.476562 -195.65625 181.59375 -197.5 C 182.707031 -199.351562 183.878906 -201.269531 185.109375 -203.25 C 190.535156 -213.363281 194.789062 -220.890625 197.875 -225.828125 C 200.96875 -230.765625 203.375 -233.601562 205.09375 -234.34375 C 209.289062 -234.101562 212.75 -233.054688 215.46875 -231.203125 C 218.1875 -229.347656 220.53125 -226.203125 222.5 -221.765625 C 222.75 -220.523438 222.5625 -218.484375 221.9375 -215.640625 C 221.320312 -212.804688 220.523438 -210.15625 219.546875 -207.6875 C 219.046875 -206.207031 217.867188 -202.503906 216.015625 -196.578125 C 214.171875 -190.660156 212.628906 -184.738281 211.390625 -178.8125 C 206.703125 -166.476562 203.25 -154.507812 201.03125 -142.90625 C 199.300781 -134.019531 197.445312 -125.378906 195.46875 -116.984375 C 191.28125 -97.984375 188.132812 -82.3125 186.03125 -69.96875 C 183.9375 -57.625 182.765625 -46.519531 182.515625 -36.65625 C 182.265625 -24.0625 183.003906 -15.546875 184.734375 -11.109375 C 185.472656 -8.640625 187.328125 -7.40625 190.296875 -7.40625 C 192.515625 -7.40625 194.363281 -8.269531 195.84375 -10 C 203 -19.375 208.921875 -27.640625 213.609375 -34.796875 C 218.304688 -41.953125 223.367188 -50.46875 228.796875 -60.34375 C 243.847656 -88.476562 261.742188 -127.101562 282.484375 -176.21875 C 290.378906 -198.925781 295.742188 -213.734375 298.578125 -220.640625 C 301.421875 -227.554688 304.691406 -232.003906 308.390625 -233.984375 C 309.867188 -234.960938 311.347656 -235.453125 312.828125 -235.453125 C 315.546875 -235.453125 318.015625 -234.46875 320.234375 -232.5 C 321.222656 -231.507812 322.148438 -229.90625 323.015625 -227.6875 C 323.878906 -225.46875 324.1875 -223 323.9375 -220.28125 C 321.46875 -211.644531 315.726562 -195.539062 306.71875 -171.96875 C 297.71875 -148.394531 290.75 -131.300781 285.8125 -120.6875 C 284.820312 -118.957031 282.847656 -115.628906 279.890625 -110.703125 C 279.390625 -109.953125 278.335938 -108.15625 276.734375 -105.3125 C 275.128906 -102.476562 274.328125 -100.320312 274.328125 -98.84375 C 274.328125 -96.375 267.847656 -83.476562 254.890625 -60.15625 C 241.929688 -36.832031 232.367188 -21.222656 226.203125 -13.328125 C 218.054688 -2.960938 209.847656 5.117188 201.578125 10.921875 C 193.316406 16.722656 187.582031 19.625 184.375 19.625 Z M 184.375 19.625 "/></g></g></g><g fill="#b70c34" fill-opacity="1"><g transform="translate(260.647774, 946.661918)"><g><path d="M 77 -162.15625 C 75.269531 -163.882812 73.789062 -166.84375 72.5625 -171.03125 C 71.332031 -175.226562 71.332031 -177.328125 72.5625 -177.328125 C 74.539062 -177.578125 76.820312 -179.738281 79.40625 -183.8125 C 82 -187.882812 83.171875 -191.28125 82.921875 -194 C 82.921875 -194.976562 83.289062 -195.898438 84.03125 -196.765625 C 84.78125 -197.628906 85.644531 -198.1875 86.625 -198.4375 C 88.601562 -199.664062 90.332031 -200.28125 91.8125 -200.28125 C 96.007812 -200.28125 99.835938 -197.320312 103.296875 -191.40625 C 104.773438 -188.195312 105.515625 -185.359375 105.515625 -182.890625 C 105.515625 -180.671875 104.894531 -178.382812 103.65625 -176.03125 C 102.425781 -173.6875 100.207031 -170.664062 97 -166.96875 C 92.800781 -161.289062 88.851562 -158.453125 85.15625 -158.453125 C 82.6875 -158.453125 79.96875 -159.6875 77 -162.15625 Z M 41.09375 -11.84375 C 37.632812 -15.300781 35.90625 -20.238281 35.90625 -26.65625 C 35.90625 -30.113281 36.523438 -33.078125 37.765625 -35.546875 C 37.765625 -36.773438 38.007812 -38.253906 38.5 -39.984375 C 39 -41.710938 39.25 -42.820312 39.25 -43.3125 C 39 -44.789062 39.984375 -48.863281 42.203125 -55.53125 C 46.648438 -65.40625 52.570312 -82.804688 59.96875 -107.734375 C 59.96875 -108.960938 60.460938 -110.007812 61.453125 -110.875 C 62.441406 -111.738281 63.925781 -112.296875 65.90625 -112.546875 C 67.875 -113.035156 69.226562 -113.28125 69.96875 -113.28125 C 71.445312 -113.28125 72.742188 -112.722656 73.859375 -111.609375 C 74.972656 -110.503906 76.515625 -108.472656 78.484375 -105.515625 C 79.960938 -104.035156 80.703125 -101.8125 80.703125 -98.84375 C 80.703125 -94.15625 79.097656 -88.476562 75.890625 -81.8125 C 72.679688 -74.65625 70.582031 -68.488281 69.59375 -63.3125 C 66.632812 -56.644531 64.289062 -50.472656 62.5625 -44.796875 C 62.070312 -43.316406 61.332031 -40.351562 60.34375 -35.90625 C 59.351562 -31.46875 57.992188 -27.890625 56.265625 -25.171875 C 54.785156 -18.265625 53.425781 -13.453125 52.1875 -10.734375 C 50.957031 -8.015625 49.601562 -6.65625 48.125 -6.65625 C 46.394531 -6.65625 44.050781 -8.382812 41.09375 -11.84375 Z M 41.09375 -11.84375 "/></g></g></g><g fill="#b70c34" fill-opacity="1"><g transform="translate(322.471939, 946.661918)"><g><path d="M 44.0625 -12.953125 C 42.082031 -14.429688 40.722656 -15.785156 39.984375 -17.015625 C 39.242188 -18.253906 38.875 -20.109375 38.875 -22.578125 C 38.875 -24.804688 39 -26.660156 39.25 -28.140625 C 39.988281 -36.523438 41.835938 -46.273438 44.796875 -57.390625 L 46.640625 -64.78125 C 47.390625 -70.957031 51.710938 -83.914062 59.609375 -103.65625 C 67.503906 -123.40625 73.921875 -136.859375 78.859375 -144.015625 C 80.828125 -145.242188 82.925781 -145.859375 85.15625 -145.859375 C 88.363281 -145.859375 91.078125 -144.75 93.296875 -142.53125 C 94.773438 -141.539062 95.515625 -139.691406 95.515625 -136.984375 C 95.515625 -134.515625 94.585938 -130.875 92.734375 -126.0625 C 90.890625 -121.25 87.742188 -114.148438 83.296875 -104.765625 C 82.304688 -102.796875 80.640625 -99.09375 78.296875 -93.65625 C 75.953125 -88.226562 74.78125 -85.023438 74.78125 -84.046875 C 74.78125 -83.546875 74.90625 -83.296875 75.15625 -83.296875 C 75.644531 -83.296875 76.132812 -83.476562 76.625 -83.84375 C 77.125 -84.21875 77.617188 -84.53125 78.109375 -84.78125 C 80.828125 -89.46875 87.429688 -95.882812 97.921875 -104.03125 C 108.410156 -112.175781 115.628906 -117.234375 119.578125 -119.203125 C 121.304688 -120.191406 123.523438 -121.179688 126.234375 -122.171875 C 128.953125 -123.160156 130.804688 -123.898438 131.796875 -124.390625 C 135.742188 -126.367188 140.429688 -127.359375 145.859375 -127.359375 C 149.316406 -127.359375 152.34375 -126.800781 154.9375 -125.6875 C 157.53125 -124.570312 159.320312 -122.90625 160.3125 -120.6875 C 160.550781 -118.957031 161.222656 -117.597656 162.328125 -116.609375 C 163.441406 -115.628906 164.25 -115.015625 164.75 -114.765625 C 165.488281 -114.765625 165.976562 -114.457031 166.21875 -113.84375 C 166.46875 -113.226562 166.59375 -112.796875 166.59375 -112.546875 C 166.59375 -110.816406 165.601562 -109.765625 163.625 -109.390625 C 161.65625 -109.023438 158.082031 -108.71875 152.90625 -108.46875 C 150.1875 -108.226562 147.34375 -107.613281 144.375 -106.625 C 141.414062 -105.632812 138.457031 -104.398438 135.5 -102.921875 C 121.675781 -95.023438 111.367188 -88.851562 104.578125 -84.40625 C 97.796875 -79.96875 90.953125 -73.921875 84.046875 -66.265625 C 81.328125 -63.304688 77.742188 -58 73.296875 -50.34375 C 71.578125 -48.625 69.789062 -44.125 67.9375 -36.84375 C 66.082031 -29.5625 65.15625 -25.054688 65.15625 -23.328125 C 64.90625 -22.585938 64.410156 -21.164062 63.671875 -19.0625 C 62.929688 -16.96875 61.820312 -14.929688 60.34375 -12.953125 C 57.382812 -9.003906 54.914062 -7.03125 52.9375 -7.03125 C 50.71875 -7.03125 47.757812 -9.003906 44.0625 -12.953125 Z M 44.0625 -12.953125 "/></g></g></g><g fill="#b70c34" fill-opacity="1"><g transform="translate(448.341815, 946.661918)"><g><path d="M 41.46875 -1.84375 C 38.5 -2.832031 35.410156 -5.734375 32.203125 -10.546875 C 28.992188 -15.359375 27.390625 -19.738281 27.390625 -23.6875 L 32.578125 -39.25 L 39.609375 -61.453125 C 41.835938 -64.660156 43.628906 -68.546875 44.984375 -73.109375 C 46.335938 -77.679688 47.140625 -80.335938 47.390625 -81.078125 C 49.859375 -85.765625 54.796875 -97.117188 62.203125 -115.140625 L 69.234375 -132.171875 C 76.140625 -146.972656 81.816406 -160.300781 86.265625 -172.15625 L 92.1875 -185.84375 L 99.21875 -202.140625 C 107.851562 -223.117188 112.664062 -235.335938 113.65625 -238.796875 C 113.65625 -240.765625 114.085938 -242.242188 114.953125 -243.234375 C 115.816406 -244.222656 116.742188 -244.71875 117.734375 -244.71875 C 118.960938 -245.945312 120.9375 -246.5625 123.65625 -246.5625 C 124.882812 -246.5625 126.859375 -244.648438 129.578125 -240.828125 C 132.296875 -237.003906 133.65625 -233.734375 133.65625 -231.015625 C 133.65625 -226.816406 131.675781 -219.222656 127.71875 -208.234375 C 123.769531 -197.253906 118.46875 -185.101562 111.8125 -171.78125 C 87.625 -119.707031 76.515625 -92.679688 78.484375 -90.703125 C 79.472656 -91.191406 81.570312 -92.238281 84.78125 -93.84375 C 87.988281 -95.445312 91.320312 -97.484375 94.78125 -99.953125 C 97 -101.191406 99.09375 -102.488281 101.0625 -103.84375 C 103.039062 -105.195312 104.769531 -106.367188 106.25 -107.359375 C 113.90625 -112.546875 118.597656 -115.382812 120.328125 -115.875 C 121.804688 -116.863281 124.644531 -118.59375 128.84375 -121.0625 C 133.28125 -124.019531 135.625 -125.625 135.875 -125.875 C 138.832031 -127.351562 141.300781 -128.09375 143.28125 -128.09375 C 144.757812 -128.09375 146.113281 -127.597656 147.34375 -126.609375 C 148.582031 -125.628906 150.066406 -124.148438 151.796875 -122.171875 C 153.273438 -120.441406 154.015625 -118.710938 154.015625 -116.984375 C 154.015625 -115.253906 153.023438 -113.460938 151.046875 -111.609375 C 149.078125 -109.765625 145.742188 -107.363281 141.046875 -104.40625 C 137.835938 -102.175781 134.503906 -100.070312 131.046875 -98.09375 C 127.597656 -96.125 124.269531 -94.15625 121.0625 -92.1875 C 103.289062 -81.320312 94.160156 -75.519531 93.671875 -74.78125 C 94.160156 -73.789062 95.328125 -71.566406 97.171875 -68.109375 C 99.023438 -64.660156 100.816406 -61.703125 102.546875 -59.234375 L 108.109375 -49.609375 C 111.066406 -45.410156 112.546875 -42.695312 112.546875 -41.46875 C 114.765625 -35.289062 117.785156 -30.472656 121.609375 -27.015625 C 125.441406 -23.566406 129.578125 -21.84375 134.015625 -21.84375 C 136.234375 -21.84375 138.828125 -22.457031 141.796875 -23.6875 C 145.492188 -25.175781 148.453125 -25.921875 150.671875 -25.921875 C 154.128906 -25.921875 156.476562 -23.941406 157.71875 -19.984375 C 158.457031 -18.503906 158.828125 -17.394531 158.828125 -16.65625 C 158.828125 -15.664062 157.097656 -13.445312 153.640625 -10 C 147.222656 -3.582031 140.679688 -0.375 134.015625 -0.375 C 131.796875 -0.375 129.207031 -0.988281 126.25 -2.21875 C 122.539062 -1.96875 117.910156 -4.4375 112.359375 -9.625 C 106.804688 -14.8125 99.09375 -23.820312 89.21875 -36.65625 C 89.21875 -37.632812 87.863281 -40.84375 85.15625 -46.28125 C 84.164062 -48.5 83.050781 -50.53125 81.8125 -52.375 C 80.582031 -54.226562 79.722656 -55.523438 79.234375 -56.265625 C 79.234375 -57.253906 78.675781 -58.550781 77.5625 -60.15625 C 76.445312 -61.757812 75.644531 -63.054688 75.15625 -64.046875 C 72.4375 -64.785156 70.273438 -64.535156 68.671875 -63.296875 C 67.066406 -62.066406 65.585938 -60.34375 64.234375 -58.125 C 62.878906 -55.90625 61.832031 -54.300781 61.09375 -53.3125 C 58.625 -46.894531 56.15625 -39.054688 53.6875 -29.796875 C 51.21875 -20.546875 50.351562 -14.5625 51.09375 -11.84375 C 51.09375 -7.894531 50.472656 -5.238281 49.234375 -3.875 C 48.003906 -2.519531 45.414062 -1.84375 41.46875 -1.84375 Z M 41.46875 -1.84375 "/></g></g></g><g fill="#b70c34" fill-opacity="1"><g transform="translate(576.062763, 946.661918)"><g><path d="M 59.609375 1.484375 C 55.160156 -0.242188 50.835938 -2.773438 46.640625 -6.109375 C 42.453125 -9.441406 39.613281 -12.34375 38.125 -14.8125 C 38.125 -15.300781 38.125 -16.160156 38.125 -17.390625 C 38.125 -18.628906 38.492188 -19.429688 39.234375 -19.796875 C 39.984375 -20.171875 41.34375 -20.359375 43.3125 -20.359375 C 47.507812 -20.359375 54.175781 -19.863281 63.3125 -18.875 C 68.738281 -18.875 74.90625 -19.550781 81.8125 -20.90625 C 88.726562 -22.269531 92.554688 -23.816406 93.296875 -25.546875 C 94.035156 -25.546875 94.40625 -25.671875 94.40625 -25.921875 C 94.40625 -26.410156 93.414062 -27.644531 91.4375 -29.625 C 90.945312 -29.625 89.835938 -30.050781 88.109375 -30.90625 C 86.378906 -31.769531 85.269531 -32.203125 84.78125 -32.203125 C 84.78125 -33.191406 83.664062 -34.488281 81.4375 -36.09375 C 79.21875 -37.695312 76.753906 -39.117188 74.046875 -40.359375 C 66.890625 -46.273438 61.828125 -50.648438 58.859375 -53.484375 C 55.898438 -56.328125 54.789062 -58.367188 55.53125 -59.609375 L 55.53125 -61.453125 C 53.800781 -61.453125 51.882812 -63.859375 49.78125 -68.671875 C 47.6875 -73.484375 46.640625 -77.988281 46.640625 -82.1875 C 46.640625 -86.632812 48.550781 -92.804688 52.375 -100.703125 C 56.207031 -108.597656 60.59375 -115.015625 65.53125 -119.953125 C 72.4375 -126.367188 81.378906 -133.15625 92.359375 -140.3125 C 103.347656 -147.46875 112.050781 -152.035156 118.46875 -154.015625 C 122.664062 -155.742188 126.863281 -156.609375 131.0625 -156.609375 C 135.007812 -156.609375 138.335938 -155.742188 141.046875 -154.015625 C 144.253906 -152.035156 147.398438 -149.191406 150.484375 -145.484375 C 153.578125 -141.785156 155.617188 -138.457031 156.609375 -135.5 C 156.609375 -130.070312 156.050781 -124.828125 154.9375 -119.765625 C 153.820312 -114.703125 152.15625 -112.171875 149.9375 -112.171875 C 149.6875 -112.171875 149.316406 -112.046875 148.828125 -111.796875 C 148.335938 -111.554688 148.09375 -110.941406 148.09375 -109.953125 C 148.09375 -108.960938 147.597656 -107.664062 146.609375 -106.0625 C 145.617188 -104.457031 144.257812 -102.914062 142.53125 -101.4375 C 137.101562 -97.488281 132.660156 -95.515625 129.203125 -95.515625 C 126.492188 -95.515625 124.765625 -96.875 124.015625 -99.59375 C 123.523438 -100.082031 123.03125 -100.820312 122.53125 -101.8125 C 122.039062 -102.800781 121.425781 -103.296875 120.6875 -103.296875 C 120.445312 -103.296875 120.015625 -103.722656 119.390625 -104.578125 C 118.773438 -105.441406 118.46875 -106.617188 118.46875 -108.109375 C 118.46875 -108.847656 118.773438 -109.648438 119.390625 -110.515625 C 120.015625 -111.378906 120.445312 -111.929688 120.6875 -112.171875 C 122.164062 -112.171875 124.632812 -115.070312 128.09375 -120.875 C 131.550781 -126.675781 133.28125 -130.5625 133.28125 -132.53125 C 133.28125 -134.019531 133.09375 -134.882812 132.71875 -135.125 C 132.351562 -135.375 131.179688 -135.5 129.203125 -135.5 C 109.953125 -126.863281 97.984375 -120.320312 93.296875 -115.875 C 92.554688 -114.394531 92 -113.40625 91.625 -112.90625 C 91.257812 -112.414062 90.582031 -112.171875 89.59375 -112.171875 C 89.59375 -114.398438 83.050781 -106.007812 69.96875 -87 C 69.476562 -86.507812 68.921875 -85.03125 68.296875 -82.5625 C 67.679688 -80.09375 67.375 -77.992188 67.375 -76.265625 C 66.882812 -74.285156 66.640625 -73.175781 66.640625 -72.9375 C 66.640625 -71.945312 67.070312 -70.957031 67.9375 -69.96875 C 68.800781 -68.976562 69.972656 -67.925781 71.453125 -66.8125 C 72.929688 -65.707031 74.410156 -64.539062 75.890625 -63.3125 C 88.722656 -53.6875 97.671875 -46.46875 102.734375 -41.65625 C 107.796875 -36.84375 110.820312 -32.832031 111.8125 -29.625 C 115.019531 -24.6875 116.625 -20.242188 116.625 -16.296875 C 116.625 -13.328125 115.507812 -10.734375 113.28125 -8.515625 C 111.0625 -6.296875 107.734375 -4.195312 103.296875 -2.21875 C 100.578125 -0.988281 96.007812 0.0546875 89.59375 0.921875 C 83.175781 1.785156 76.882812 2.21875 70.71875 2.21875 C 67.257812 2.21875 63.554688 1.972656 59.609375 1.484375 Z M 59.609375 1.484375 "/></g></g></g><g fill="#b70c34" fill-opacity="1"><g transform="translate(694.898708, 946.661918)"><g><path d="M 39.609375 -13.328125 C 38.867188 -14.804688 37.695312 -16.347656 36.09375 -17.953125 C 34.488281 -19.554688 33.6875 -20.609375 33.6875 -21.109375 C 33.6875 -23.816406 33.070312 -25.910156 31.84375 -27.390625 C 31.34375 -27.890625 31.09375 -29.003906 31.09375 -30.734375 C 31.09375 -34.679688 33.003906 -41.40625 36.828125 -50.90625 C 40.660156 -60.40625 45.660156 -70.707031 51.828125 -81.8125 C 53.304688 -83.300781 55.21875 -85.894531 57.5625 -89.59375 C 59.914062 -93.289062 61.460938 -95.390625 62.203125 -95.890625 C 62.203125 -96.878906 62.570312 -97.800781 63.3125 -98.65625 C 64.050781 -99.519531 64.914062 -99.953125 65.90625 -99.953125 L 65.90625 -102.1875 C 65.90625 -104.40625 69.972656 -109.769531 78.109375 -118.28125 C 86.253906 -126.800781 92.921875 -132.664062 98.109375 -135.875 C 104.273438 -140.0625 110.566406 -142.15625 116.984375 -142.15625 C 121.429688 -142.15625 125.257812 -140.925781 128.46875 -138.46875 C 129.695312 -136.976562 135.375 -131.671875 145.5 -122.546875 L 159.1875 -110.328125 L 152.53125 -91.8125 C 150.3125 -85.144531 149.203125 -79.097656 149.203125 -73.671875 C 149.203125 -64.296875 151.914062 -55.285156 157.34375 -46.640625 C 158.570312 -43.929688 161.035156 -41.34375 164.734375 -38.875 C 168.441406 -36.40625 172.148438 -34.925781 175.859375 -34.4375 C 181.285156 -33.445312 184 -30.726562 184 -26.28125 C 184 -21.34375 181.773438 -18.382812 177.328125 -17.40625 C 176.347656 -17.15625 174.867188 -17.03125 172.890625 -17.03125 C 158.328125 -17.03125 145.738281 -27.273438 135.125 -47.765625 C 134.144531 -49.242188 132.851562 -51.957031 131.25 -55.90625 C 129.644531 -59.851562 128.71875 -62.566406 128.46875 -64.046875 C 126.988281 -62.078125 125.132812 -59.734375 122.90625 -57.015625 C 120.6875 -54.296875 118.59375 -51.953125 116.625 -49.984375 C 89.71875 -23.078125 68.488281 -9.625 52.9375 -9.625 C 48 -9.625 43.554688 -10.859375 39.609375 -13.328125 Z M 52.9375 -34.0625 C 52.9375 -32.820312 54.234375 -32.445312 56.828125 -32.9375 C 59.421875 -33.4375 62.628906 -34.671875 66.453125 -36.640625 C 70.273438 -38.617188 74.160156 -41.210938 78.109375 -44.421875 C 99.335938 -62.691406 114.640625 -78.613281 124.015625 -92.1875 L 132.171875 -105.515625 C 129.703125 -110.691406 127.109375 -114.453125 124.390625 -116.796875 C 121.679688 -119.148438 119.210938 -120.328125 116.984375 -120.328125 C 111.804688 -120.328125 103.660156 -113.847656 92.546875 -100.890625 C 81.441406 -87.929688 71.328125 -72.6875 62.203125 -55.15625 C 59.972656 -50.96875 57.992188 -46.710938 56.265625 -42.390625 C 54.546875 -38.066406 53.4375 -35.289062 52.9375 -34.0625 Z M 52.9375 -34.0625 "/></g></g></g><g fill="#b70c34" fill-opacity="1"><g transform="translate(849.274484, 946.661918)"><g><path d="M 203.984375 -15.546875 C 200.535156 -16.785156 197.265625 -19.8125 194.171875 -24.625 C 191.085938 -29.4375 189.546875 -37.269531 189.546875 -48.125 L 189.921875 -65.15625 C 189.921875 -68.113281 189.734375 -70.207031 189.359375 -71.4375 C 188.992188 -72.675781 188.316406 -73.296875 187.328125 -73.296875 C 184.117188 -73.296875 177.269531 -69.097656 166.78125 -60.703125 C 156.289062 -52.316406 145.738281 -42.328125 135.125 -30.734375 C 133.894531 -29.492188 132.226562 -27.703125 130.125 -25.359375 C 128.03125 -23.015625 126.117188 -21.285156 124.390625 -20.171875 C 122.660156 -19.066406 121.054688 -18.515625 119.578125 -18.515625 C 117.359375 -18.515625 115.257812 -19.378906 113.28125 -21.109375 L 109.21875 -24.4375 C 107.488281 -25.914062 106.625 -27.644531 106.625 -29.625 L 107.359375 -32.953125 L 115.875 -57.390625 C 121.300781 -69.972656 124.507812 -77.929688 125.5 -81.265625 C 126.488281 -84.597656 126.367188 -86.140625 125.140625 -85.890625 C 122.910156 -85.640625 119.820312 -84.46875 115.875 -82.375 C 111.925781 -80.28125 109.457031 -78.242188 108.46875 -76.265625 C 107.976562 -76.265625 106.375 -74.96875 103.65625 -72.375 C 100.945312 -69.78125 98.601562 -67.867188 96.625 -66.640625 C 94.40625 -63.429688 88.976562 -57.628906 80.34375 -49.234375 L 71.453125 -40.71875 C 67.753906 -37.757812 62.570312 -31.710938 55.90625 -22.578125 C 52.445312 -18.140625 50.472656 -15.921875 49.984375 -15.921875 C 42.328125 -15.921875 37.515625 -19.625 35.546875 -27.03125 C 34.554688 -28.757812 34.0625 -31.101562 34.0625 -34.0625 C 34.0625 -38.007812 35.539062 -46.15625 38.5 -58.5 C 40.71875 -66.882812 41.953125 -72.066406 42.203125 -74.046875 L 44.0625 -81.453125 C 44.550781 -84.660156 45.660156 -88.484375 47.390625 -92.921875 C 49.117188 -97.367188 52.078125 -104.40625 56.265625 -114.03125 C 58.734375 -120.9375 59.96875 -126.117188 59.96875 -129.578125 C 59.96875 -132.785156 61.078125 -135.3125 63.296875 -137.15625 C 65.523438 -139.007812 68 -139.9375 70.71875 -139.9375 C 74.164062 -139.9375 77.125 -138.578125 79.59375 -135.859375 C 82.0625 -133.148438 83.296875 -129.578125 83.296875 -125.140625 C 83.296875 -120.941406 82.3125 -116.617188 80.34375 -112.171875 L 76.265625 -102.1875 C 74.285156 -98.226562 71.753906 -91.867188 68.671875 -83.109375 C 65.585938 -74.347656 64.046875 -69.472656 64.046875 -68.484375 C 64.296875 -67.742188 65.160156 -67.929688 66.640625 -69.046875 C 68.117188 -70.160156 69.847656 -71.578125 71.828125 -73.296875 C 74.046875 -75.523438 76.632812 -77.75 79.59375 -79.96875 C 87 -86.875 95.820312 -93.535156 106.0625 -99.953125 C 116.3125 -106.367188 124.148438 -110.441406 129.578125 -112.171875 C 132.785156 -112.171875 135.191406 -111.738281 136.796875 -110.875 C 138.398438 -110.007812 140.1875 -108.53125 142.15625 -106.4375 C 144.132812 -104.34375 145.617188 -102.800781 146.609375 -101.8125 C 148.828125 -99.59375 149.9375 -96.382812 149.9375 -92.1875 C 149.9375 -90.945312 149.691406 -89.34375 149.203125 -87.375 C 148.210938 -83.914062 146.914062 -79.71875 145.3125 -74.78125 C 143.707031 -69.84375 142.535156 -66.265625 141.796875 -64.046875 C 143.523438 -65.523438 146.609375 -68.113281 151.046875 -71.8125 C 155.492188 -75.519531 159.566406 -78.976562 163.265625 -82.1875 C 175.609375 -91.8125 185.359375 -96.625 192.515625 -96.625 C 197.691406 -96.625 202.132812 -93.910156 205.84375 -88.484375 C 208.0625 -86.265625 209.414062 -83.976562 209.90625 -81.625 C 210.40625 -79.28125 210.65625 -76.132812 210.65625 -72.1875 C 210.65625 -68.238281 210.65625 -65.15625 210.65625 -62.9375 C 210.90625 -61.207031 211.03125 -58.242188 211.03125 -54.046875 C 211.269531 -52.078125 211.570312 -48.253906 211.9375 -42.578125 C 212.3125 -36.898438 212.867188 -33.691406 213.609375 -32.953125 C 214.847656 -31.472656 219.046875 -30.113281 226.203125 -28.875 C 230.648438 -28.132812 232.875 -26.160156 232.875 -22.953125 C 232.875 -20.734375 231.269531 -18.515625 228.0625 -16.296875 C 224.84375 -14.316406 220.890625 -13.328125 216.203125 -13.328125 C 211.765625 -13.328125 207.691406 -14.066406 203.984375 -15.546875 Z M 203.984375 -15.546875 "/></g></g></g><g fill="#b70c34" fill-opacity="1"><g transform="translate(1049.185699, 946.661918)"><g><path d="M 56.640625 -19.25 C 51.953125 -17.519531 48.375 -16.65625 45.90625 -16.65625 C 42.445312 -16.65625 38.742188 -18.140625 34.796875 -21.109375 C 31.347656 -24.554688 29.625 -28.007812 29.625 -31.46875 C 29.625 -36.894531 33.816406 -42.445312 42.203125 -48.125 C 47.140625 -51.09375 50.71875 -52.578125 52.9375 -52.578125 C 54.175781 -52.578125 57.140625 -51.710938 61.828125 -49.984375 C 68.492188 -46.035156 71.828125 -41.46875 71.828125 -36.28125 C 71.828125 -33.320312 70.53125 -30.359375 67.9375 -27.390625 C 65.34375 -24.429688 61.578125 -21.71875 56.640625 -19.25 Z M 56.640625 -19.25 "/></g></g></g></g></g></svg>